<svg xmlns="http://www.w3.org/2000/svg" xmlns:xlink="http://www.w3.org/1999/xlink" xml:space="preserve"
  width="24" height="24" viewBox="0 0 24 24" >
<g fill="#1D9BF0">
	<path d="M 21.211 7.276 C 21.223 7.479 21.223 7.683 21.223 7.89 C 21.223 14.168 16.445 21.409 7.703 21.409 L 7.703 21.407 C 5.122 21.409 2.593 20.671 0.419 19.277 C 0.795 19.321 1.173 19.345 1.551 19.345 C 3.691 19.347 5.769 18.627 7.453 17.305 C 5.419 17.269 3.636 15.942 3.014 14.007 C 3.725 14.143 4.458 14.114 5.159 13.924 C 2.94 13.476 1.347 11.529 1.347 9.268 C 1.347 9.247 1.347 9.227 1.347 9.205 C 2.007 9.576 2.748 9.779 3.504 9.803 C 1.415 8.404 0.771 5.628 2.033 3.456 C 4.445 6.426 8.002 8.23 11.826 8.42 C 11.441 6.77 11.966 5.042 13.199 3.881 C 15.115 2.083 18.124 2.174 19.923 4.088 C 20.986 3.877 22.009 3.485 22.943 2.932 C 22.587 4.033 21.843 4.968 20.851 5.561 C 21.795 5.451 22.716 5.198 23.581 4.812 C 22.943 5.769 22.139 6.601 21.211 7.276 Z" />
</g>
</svg>
